<svg xmlns="http://www.w3.org/2000/svg" width="100" height="100" viewBox="0 0 105 105"><path fill="#003E95" d="M100 50c0 27.614-22.387 50-50 50-27.615 0-50-22.386-50-50S22.385 0 50 0c27.614 0 50 22.386 50 50zM50 7.143C26.33 7.143 7.143 26.33 7.143 50S26.33 92.856 50 92.856c23.67 0 42.858-19.187 42.858-42.856S73.67 7.143 50 7.143z"/><path fill="#003E95" d="M73.796 75.422c-.839.634-1.827.949-2.965.949-1.006 0-1.961-.315-2.864-.949-.905-.632-1.356-1.548-1.356-2.746V40.203h-.099L54.108 65.382c-.469.934-1.002 1.632-1.601 2.099-.601.467-1.401.699-2.401.699-1 0-1.801-.232-2.4-.699-.601-.467-1.134-1.165-1.601-2.099L33.702 40.203h-.1v32.473c0 1.198-.471 2.114-1.408 2.746-.937.634-1.91.949-2.914.949-1.14 0-2.112-.315-2.916-.949-.803-.632-1.205-1.548-1.205-2.746V29.114c0-1.266.399-2.449 1.201-3.547s2.238-1.647 4.309-1.647c1.536 0 2.723.35 3.558 1.049.834.699 1.584 1.749 2.254 3.146L50.106 56.19h.1L63.73 28.115c.667-1.397 1.419-2.447 2.254-3.146.835-.699 2.02-1.049 3.558-1.049 2.07 0 3.506.549 4.307 1.647.802 1.099 1.203 2.282 1.203 3.547v43.562c0 1.198-.419 2.114-1.256 2.746z"/></svg>