<svg xmlns="http://www.w3.org/2000/svg" width="100" height="100" viewBox="0 0 105 105"><path fill="#003E95" d="M100 50c0 27.614-22.386 50-50 50S0 77.614 0 50 22.386 0 50 0c27.615 0 50 22.386 50 50zM50 7.143C26.332 7.143 7.143 26.33 7.143 50S26.332 92.856 50 92.856c23.67 0 42.858-19.186 42.858-42.856S73.67 7.143 50 7.143z"/><path fill="#003E95" d="M59.5 61.775c-.467-.678-1.166-1.016-2.099-1.016H47.91v-8.441h7.892c.866 0 1.547-.3 2.047-.9.5-.598.75-1.266.75-1.998s-.25-1.398-.75-1.999c-.5-.598-1.181-.899-2.047-.899H47.91v-7.938h8.792c.932 0 1.614-.339 2.048-1.016.433-.677.649-1.388.649-2.134 0-.744-.217-1.457-.649-2.134-.434-.677-1.116-1.016-2.048-1.016H43.915c-.866 0-1.534.313-2 .939a3.409 3.409 0 0 0-.699 2.084v29.154c0 .866.366 1.516 1.099 1.948.732.434 1.5.647 2.299.647h12.788c.933 0 1.632-.338 2.099-1.016.464-.677.698-1.388.698-2.134-.001-.741-.235-1.454-.699-2.131zM84.726 37.778c-.566-1.236-1.314-2.256-2.248-3.059a8.802 8.802 0 0 0-3.197-1.756 12.254 12.254 0 0 0-3.595-.551h-9.392c-.934 0-1.617.299-2.05.898a3.319 3.319 0 0 0-.647 1.996V64.54c0 .934.349 1.599 1.047 1.998.699.4 1.449.599 2.248.599.934 0 1.732-.215 2.398-.647.665-.434 1-1.124 1-2.075V53.326h2.897l5.595 12.473c.465.866 1.264 1.298 2.398 1.298.531 0 1.064-.099 1.598-.3.532-.198.999-.48 1.398-.846.399-.364.683-.794.851-1.29.165-.494.116-1.039-.15-1.634l-5.295-11.141c1.599-.795 2.996-1.97 4.195-3.529 1.198-1.56 1.799-3.599 1.799-6.119 0-1.736-.283-3.224-.85-4.46z"/><path fill="#FFF" d="M78.582 42.995c0-1.736-.601-2.99-1.8-3.76-1.199-.768-2.563-1.153-4.095-1.153H70.29v10.205h1.998c.599 0 1.266-.065 1.998-.199s1.413-.399 2.047-.799c.635-.397 1.166-.947 1.599-1.647.433-.701.65-1.582.65-2.647z"/><path fill="#003E95" d="M36.369 37.778c-.567-1.236-1.315-2.256-2.248-3.059s-1.999-1.388-3.197-1.756a12.264 12.264 0 0 0-3.595-.551h-9.392c-.934 0-1.617.299-2.05.898s-.647 1.264-.647 1.996V64.54c0 .934.366 1.599 1.099 1.998.732.4 1.498.599 2.297.599.933 0 1.714-.215 2.349-.647.632-.434.949-1.124.949-2.075V53.326h2.898l5.595 12.473c.465.866 1.264 1.298 2.398 1.298.531 0 1.065-.099 1.599-.3a4.861 4.861 0 0 0 1.449-.846 2.86 2.86 0 0 0 .899-1.29c.166-.494.116-1.039-.149-1.634l-5.396-11.141c1.599-.795 2.996-1.97 4.195-3.529 1.199-1.56 1.799-3.599 1.799-6.119-.002-1.736-.285-3.224-.852-4.46z"/><path fill="#FFF" d="M30.225 42.995c0-1.736-.601-2.99-1.799-3.76-1.199-.768-2.563-1.153-4.095-1.153h-2.398v10.205h1.998c.599 0 1.266-.065 1.998-.199a5.737 5.737 0 0 0 2.048-.799c.634-.397 1.165-.947 1.598-1.647.433-.701.65-1.582.65-2.647z"/></svg>