<svg xmlns="http://www.w3.org/2000/svg" width="100" height="100" viewBox="0 0 105 105"><path fill="#003E95" d="M100 49.606c0 27.396-22.209 49.606-49.605 49.606S0 77.003 0 49.606 22.209 0 49.606 0 100 22.21 100 49.606zM49.606 7.087c-23.482 0-42.52 19.036-42.52 42.52s19.037 42.52 42.52 42.52 42.52-19.036 42.52-42.52-19.038-42.52-42.52-42.52zm21.279 19.726c-.793-.891-1.852-1.336-3.172-1.336h-36.59c-1.322 0-2.412.43-3.271 1.287s-1.289 1.945-1.289 3.262c0 1.32.412 2.391 1.238 3.215s1.9 1.236 3.223 1.236h13.482v39.254c0 1.455.496 2.563 1.488 3.322s2.148 1.139 3.473 1.139c1.389 0 2.514-.396 3.373-1.189s1.291-1.883 1.291-3.271V34.478h13.482c1.32 0 2.395-.412 3.221-1.236s1.24-1.895 1.24-3.215c.001-1.253-.396-2.323-1.189-3.214z"/></svg>