<?xml version="1.0" encoding="utf-8"?>
<!-- Generator: Adobe Illustrator 21.1.0, SVG Export Plug-In . SVG Version: 6.00 Build 0)  -->
<svg version="1.1" id="transilien" xmlns="http://www.w3.org/2000/svg" xmlns:xlink="http://www.w3.org/1999/xlink" x="0px" y="0px"
	 viewBox="0 0 58 58" style="enable-background:new 0 0 58 58;" xml:space="preserve">
<path fill="#0088ce" d="M48.1,58H9.9C4.4,58,0,53.6,0,48.1V9.9C0,4.4,4.4,0,9.9,0h38.2C53.6,0,58,4.4,58,9.9v38.2C58,53.6,53.6,58,48.1,58z
	 M53.9,9.9c0-3.2-2.6-5.8-5.8-5.8H9.9c-3.2,0-5.8,2.6-5.8,5.8v38.2c0,3.2,2.6,5.8,5.8,5.8h38.2c3.2,0,5.8-2.6,5.8-5.8V9.9z
	 M43.2,48.4c0,0.1-0.7,0.1-1.6,0.1L40,48.4l-2.2-3.2L35.6,42l-6.3-0.1c-3.5,0-6.5,0-6.7,0c-0.2,0.1-1.2,1.3-2.5,3.3L18,48.4h-1.7
	c-1.3,0-1.6-0.1-1.5-0.2c0.1-0.1,1.4-2.2,3-4.5c1.6-2.4,2.9-4.4,2.9-4.6c0-0.2-0.3-0.4-0.8-0.5c-1.1-0.4-2.2-1.4-2.8-2.6l-0.5-1.1
	V24.1c0-10.5,0-10.7,0.4-11.6c0.6-1.2,1.3-2,2.4-2.5l1-0.5h8.4c5.9,0,8.7,0.1,9.2,0.2c0.9,0.3,2.3,1.5,2.8,2.5
	c0.4,0.8,0.4,0.8,0.4,11.8c0,11.1,0,11.1-0.4,11.8c-0.5,1-1.9,2.2-2.9,2.5c-0.5,0.2-0.8,0.4-0.8,0.6c0,0.2,1.4,2.3,3,4.8
	C41.9,46.3,43.2,48.3,43.2,48.4z M22.9,31.6c0.3-0.1,0.8-0.5,1.1-0.9c0.5-0.5,0.5-0.7,0.4-1.6c-0.1-0.9-0.2-1.1-0.8-1.6
	c-1.3-1.2-2.9-1-3.9,0.5C18.4,30,20.8,32.7,22.9,31.6z M37,14.1c-0.8-0.4-0.8-0.4-8.3-0.4c-7.2,0.1-7.5,0.1-8,0.4
	c-1.2,0.9-1.3,1.2-1.4,4c-0.1,2.4,0,2.6,0.4,3.4c0.8,1.5,0.7,1.5,9.2,1.5c6.7,0,7.5-0.1,8.1-0.3c0.4-0.2,0.8-0.6,1.1-1
	c0.4-0.6,0.4-0.8,0.4-3.3C38.5,15.4,38.4,14.8,37,14.1z M38.3,28.2c-0.8-1.6-2.6-2-3.9-0.9c-1.4,1.2-1.1,3.6,0.6,4.3
	c0.8,0.4,1.3,0.3,2.1,0C38.5,31,39,29.5,38.3,28.2z"/>
</svg>
